#!OML:ASF F:\VICON\USERDATA\INSTALL\rory3\rory3.ASF
:FULLY-SPECIFIED
:DEGREES
1526
root -2.10988 15.7075 -1.5585 3.63408 -9.08131 6.02906
lowerback 20.4392 -1.86194 2.22233
upperback 4.02708 -1.57537 5.07053
thorax -6.95956 -0.775188 4.64649
lowerneck -22.0697 -1.17561 -7.26473
upperneck 13.0382 0.553639 0.380354
head 7.59962 -0.0807455 1.3598
rclavicle -4.85035e-014 -1.59028e-015
rhumerus -25.8787 -13.573 -66.8885
rradius 111.918
rwrist -8.28346
rhand -24.3677 23.7936
rfingers 7.12502
rthumb 2.12229 -6.17556
lclavicle -4.85035e-014 -1.59028e-015
lhumerus -10.1843 5.65562 87.0174
lradius 122.109
lwrist -1.55241
lhand -12.2261 3.32516
lfingers 7.12502
lthumb 13.8391 32.8448
rfemur -46.4536 -5.56197 -0.0947233
rtibia 67.9068
rfoot -9.20848 9.81113
rtoes 0.0856902
lfemur -16.7962 7.0443 -9.79515
ltibia 65.1317
lfoot -20.9123 -14.9628
ltoes -37.7894
1527
root -2.14101 15.7162 -1.50229 3.44627 -9.88072 6.06976
lowerback 20.263 -1.76605 2.10952
upperback 3.90856 -1.4773 5.10633
thorax -6.99751 -0.725387 4.72142
lowerneck -22.2353 -0.983376 -7.11947
upperneck 13.4447 0.824217 0.209034
head 7.75453 0.0265952 1.31614
rclavicle -5.24792e-014 -9.54166e-015
rhumerus -25.8473 -13.1907 -67.4882
rradius 112.004
rwrist -8.10448
rhand -23.9701 23.8942
rfingers 7.12502
rthumb 2.50622 -6.07082
lclavicle -5.24792e-014 -9.54166e-015
lhumerus -10.109 5.42975 87.1184
lradius 121.936
lwrist -1.41571
lhand -12.5522 3.46914
lfingers 7.12502
lthumb 13.5249 33.0099
rfemur -46.2949 -5.07159 0.0135701
rtibia 67.7809
rfoot -9.12459 10.4537
rtoes 2.09344
lfemur -15.8947 6.84982 -9.68562
ltibia 64.3692
lfoot -20.7028 -15.8496
ltoes -37.0778
1528
root -2.17252 15.7313 -1.44977 3.41168 -10.7629 6.09894
lowerback 19.9812 -1.62782 1.9611
upperback 3.74801 -1.33493 5.13088
thorax -7.02761 -0.653111 4.78996
lowerneck -22.3221 -0.808784 -6.98588
upperneck 13.7452 1.07314 0.000187988
head 7.86339 0.121497 1.25856
rclavicle -5.56597e-015 -7.95139e-015
rhumerus -25.9811 -12.7288 -68.0176
rradius 112.367
rwrist -8.06826
rhand -23.6196 23.935
rfingers 7.12502
rthumb 2.84476 -6.02579
lclavicle -5.56597e-015 -7.95139e-015
lhumerus -10.1433 5.24351 87.2384
lradius 121.862
lwrist -1.36563
lhand -12.6366 3.63554
lfingers 7.12502
lthumb 13.4434 33.1817
rfemur -46.3914 -4.44781 0.0432891
rtibia 67.6512
rfoot -9.20342 10.7511
rtoes 0.976472
lfemur -15.1214 6.84249 -9.53764
ltibia 63.5458
lfoot -20.447 -17.1399
ltoes -35.2282
1529
root -2.20095 15.75 -1.39536 3.39243 -11.4991 6.15044
lowerback 19.6469 -1.55759 1.91316
upperback 3.60341 -1.26445 5.13466
thorax -7.01002 -0.618039 4.79369
lowerneck -22.4365 -0.683442 -7.01956
upperneck 14.0385 1.29487 -0.125389
head 7.97507 0.202535 1.25237
rclavicle -3.02153e-014 5.56597e-014
rhumerus -26.1242 -12.2152 -68.5554
rradius 112.855
rwrist -8.11193
rhand -23.4383 24.0606
rfingers 7.12502
rthumb 3.01986 -5.89772
lclavicle -3.02153e-014 5.56597e-014
lhumerus -10.212 5.04436 87.4298
lradius 121.841
lwrist -1.51589
lhand -12.7588 3.60313
lfingers 7.12502
lthumb 13.3256 33.1571
rfemur -46.4418 -3.95248 -0.0308264
rtibia 67.5495
rfoot -9.28282 11.0659
rtoes -0.321559
lfemur -14.4043 6.76923 -9.42896
ltibia 62.7043
lfoot -20.3532 -17.8856
ltoes -34.5947
1530
root -2.22751 15.7627 -1.34399 3.34593 -12.1177 6.25472
lowerback 19.4 -1.53093 1.87593
upperback 3.4724 -1.24802 5.08617
thorax -7.02166 -0.609244 4.75135
lowerneck -22.4922 -0.585051 -6.96397
upperneck 14.0918 1.45833 -0.341182
head 7.99975 0.257983 1.19235
rclavicle -2.94201e-014 -4.77083e-015
rhumerus -26.2118 -11.6714 -69.1001
rradius 113.454
rwrist -8.11489
rhand -23.3399 24.0666
rfingers 7.12502
rthumb 3.11485 -5.89035
lclavicle -2.94201e-014 -4.77083e-015
lhumerus -10.2955 4.85955 87.5233
lradius 121.844
lwrist -1.73446
lhand -12.9522 3.47221
lfingers 7.12502
lthumb 13.1393 33.0382
rfemur -46.4267 -3.59201 -0.154892
rtibia 67.5091
rfoot -9.00356 11.6731
rtoes -0.272725
lfemur -13.7456 6.6785 -9.38568
ltibia 61.8931
lfoot -20.4983 -18.2859
ltoes -35.4242
1531
root -2.25438 15.7735 -1.29775 3.33358 -12.7402 6.36167
lowerback 19.2209 -1.49986 1.71989
upperback 3.31558 -1.24287 5.05965
thorax -7.09354 -0.602022 4.80852
lowerneck -22.3248 -0.49787 -6.90067
upperneck 13.8118 1.5859 -0.618496
head 7.8773 0.301383 1.10292
rclavicle -1.35174e-014 -5.88403e-014
rhumerus -26.2807 -10.9441 -69.6232
rradius 114.154
rwrist -7.92249
rhand -23.2879 23.8997
rfingers 7.12502
rthumb 3.16511 -6.05652
lclavicle -1.35174e-014 -5.88403e-014
lhumerus -10.4563 4.73544 87.5375
lradius 121.78
lwrist -2.46304
lhand -12.3626 4.04909
lfingers 7.12502
lthumb 13.7076 33.5776
rfemur -46.5173 -3.18826 -0.280122
rtibia 67.5175
rfoot -8.43971 12.4637
rtoes 0.49663
lfemur -13.1697 6.68831 -9.37907
ltibia 61.1339
lfoot -20.6339 -18.8126
ltoes -35.8152
1532
root -2.28078 15.7898 -1.25479 3.4626 -13.2298 6.31429
lowerback 18.9065 -1.48911 1.72577
upperback 3.18304 -1.23634 5.06984
thorax -7.06864 -0.598647 4.80541
lowerneck -22.4616 -0.421445 -6.91413
upperneck 13.7947 1.72561 -0.729371
head 7.89132 0.354748 1.08594
rclavicle -3.4191e-014 6.20208e-014
rhumerus -26.2257 -10.2723 -70.1216
rradius 114.867
rwrist -7.62016
rhand -23.3052 23.8425
rfingers 7.12502
rthumb 3.14841 -6.114
lclavicle -3.4191e-014 6.20208e-014
lhumerus -10.3996 4.54906 87.6228
lradius 121.663
lwrist -3.2493
lhand -11.6875 4.74465
lfingers 7.12502
lthumb 14.3582 34.2281
rfemur -46.7417 -2.85155 -0.227849
rtibia 67.572
rfoot -8.05542 12.8569
rtoes -0.198061
lfemur -12.8298 6.64764 -9.23345
ltibia 60.4704
lfoot -20.5336 -19.4599
ltoes -35.2617
1533
root -2.30893 15.8041 -1.21497 3.60457 -13.5624 6.26006
lowerback 18.4534 -1.50312 1.8158
upperback 3.16938 -1.26354 5.02248
thorax -6.84009 -0.617252 4.68793
lowerneck -22.9006 -0.346283 -6.84944
upperneck 13.8887 1.86364 -0.810243
head 7.99283 0.409493 1.06831
rclavicle -4.92986e-014 5.40694e-014
rhumerus -25.9684 -9.74343 -70.661
rradius 115.613
rwrist -7.29554
rhand -23.2596 23.9012
rfingers 7.12502
rthumb 3.19244 -6.05467
lclavicle -4.92986e-014 5.40694e-014
lhumerus -10.1249 4.18138 87.6971
lradius 121.55
lwrist -4.26346
lhand -12.197 4.95846
lfingers 7.12502
lthumb 13.8671 34.4762
rfemur -46.9293 -2.67502 -0.139115
rtibia 67.7032
rfoot -7.82186 12.9928
rtoes -0.822418
lfemur -12.5619 6.46155 -9.07581
ltibia 59.8896
lfoot -20.2638 -19.7933
ltoes -34.1197
1534
root -2.34048 15.8175 -1.17989 3.64523 -13.7661 6.31381
lowerback 18.0931 -1.55185 1.75618
upperback 3.16823 -1.36304 4.94667
thorax -6.64042 -0.667308 4.64606
lowerneck -23.1043 -0.243785 -6.78855
upperneck 13.6892 2.01042 -0.900306
head 7.95591 0.477719 1.04676
rclavicle -3.18055e-015 6.36111e-015
rhumerus -25.6374 -9.08526 -71.2361
rradius 116.403
rwrist -6.80798
rhand -23.0694 23.8517
rfingers 7.12502
rthumb 3.37611 -6.10133
lclavicle -3.18055e-015 6.36111e-015
lhumerus -10.0194 3.84288 87.6946
lradius 121.514
lwrist -5.23322
lhand -12.7252 5.16164
lfingers 7.12502
lthumb 13.3581 34.7134
rfemur -47.0037 -2.56886 -0.111811
rtibia 67.9046
rfoot -7.62739 13.0853
rtoes -0.833207
lfemur -12.2319 6.23593 -9.02647
ltibia 59.3622
lfoot -20.079 -19.8259
ltoes -33.4899
1535
root -2.37627 15.834 -1.14854 3.63664 -13.9098 6.41293
lowerback 17.8564 -1.59381 1.5094
upperback 3.14294 -1.4787 4.897
thorax -6.52703 -0.720002 4.74983
lowerneck -23.2765 -0.133365 -6.91086
upperneck 13.5092 2.18617 -0.790302
head 7.91474 0.570973 1.12553
rclavicle 1.59028e-014 -6.36111e-015
rhumerus -25.2603 -8.22782 -71.8155
rradius 117.245
rwrist -6.25974
rhand -22.8606 23.6163
rfingers 7.12502
rthumb 3.57776 -6.33344
lclavicle 1.59028e-014 -6.36111e-015
lhumerus -9.88973 3.89009 87.6246
lradius 121.739
lwrist -4.52566
lhand -13.0085 4.44449
lfingers 7.12502
lthumb 13.085 34.014
rfemur -47.1037 -2.42771 -0.0799321
rtibia 68.1782
rfoot -7.66397 13.0223
rtoes -2.98617
lfemur -11.891 6.06934 -9.03536
ltibia 58.8426
lfoot -19.7029 -20.0408
ltoes -33.6376
1536
root -2.41822 15.85 -1.11582 3.64651 -14.0608 6.56996
lowerback 17.6033 -1.56657 1.05339
upperback 3.05791 -1.5358 4.88562
thorax -6.46583 -0.738558 5.00302
lowerneck -23.4711 -0.0102074 -7.06935
upperneck 13.5406 2.40337 -0.693548
head 7.94709 0.673578 1.21282
rclavicle -2.38542e-014 6.36111e-015
rhumerus -24.9956 -7.17842 -72.1691
rradius 118.234
rwrist -5.88841
rhand -22.6096 23.2326
rfingers 7.12502
rthumb 3.82013 -6.71287
lclavicle -2.38542e-014 6.36111e-015
lhumerus -9.83722 3.96365 87.656
lradius 121.9
lwrist -3.77338
lhand -13.3088 3.9
lfingers 7.12502
lthumb 12.7955 33.4879
rfemur -47.2446 -2.19809 -0.106943
rtibia 68.5043
rfoot -7.92051 12.7931
rtoes -5.53576
lfemur -11.5384 5.97811 -9.12384
ltibia 58.2998
lfoot -19.2109 -20.3349
ltoes -33.9905
1537
root -2.46424 15.8619 -1.07963 3.5725 -14.1186 6.89647
lowerback 16.9434 -1.56204 0.579454
upperback 3.19176 -1.65982 4.70379
thorax -5.94661 -0.800742 5.06681
lowerneck -23.7327 0.0828233 -7.01329
upperneck 13.5212 2.54412 -0.751337
head 7.98017 0.735981 1.20421
rclavicle 4.85035e-014 3.18055e-015
rhumerus -24.4492 -6.15977 -72.6835
rradius 119.261
rwrist -5.38091
rhand -22.1721 22.9197
rfingers 7.12502
rthumb 4.24256 -7.01779
lclavicle 4.85035e-014 3.18055e-015
lhumerus -9.5889 3.79326 87.5483
lradius 121.761
lwrist -4.12235
lhand -13.6448 4.06937
lfingers 7.12502
lthumb 12.4716 33.6772
rfemur -47.2361 -2.00158 -0.293118
rtibia 68.8281
rfoot -8.33426 12.3874
rtoes -5.71542
lfemur -11.0947 5.82157 -9.39546
ltibia 57.7043
lfoot -18.5554 -20.4935
ltoes -33.2458
1538
root -2.51505 15.869 -1.04177 3.41168 -14.0526 7.09694
lowerback 16.6433 -1.54741 0.121682
upperback 3.14306 -1.73542 4.58969
thorax -5.81955 -0.831859 5.20884
lowerneck -23.7469 0.16227 -6.93536
upperneck 13.6026 2.64777 -0.842272
head 8.00948 0.776589 1.17568
rclavicle 9.54166e-015 -3.33958e-014
rhumerus -24.1723 -4.88879 -73.0382
rradius 120.371
rwrist -4.77651
rhand -21.6249 22.6502
rfingers 7.12502
rthumb 4.77096 -7.27603
lclavicle 9.54166e-015 -3.33958e-014
lhumerus -9.60599 3.60566 87.4824
lradius 121.536
lwrist -4.51085
lhand -13.8343 4.27036
lfingers 7.12502
lthumb 12.2888 33.8893
rfemur -47.0341 -1.83807 -0.226038
rtibia 69.0795
rfoot -9.03553 11.8119
rtoes -5.38084
lfemur -10.4703 5.64414 -9.48896
ltibia 56.9999
lfoot -18.0872 -20.494
ltoes -32.3859
1539
root -2.57219 15.8701 -0.999307 3.1554 -13.962 7.24313
lowerback 16.3945 -1.51563 -0.344536
upperback 3.10463 -1.78781 4.44697
thorax -5.71105 -0.851819 5.32186
lowerneck -23.7061 0.313809 -6.82963
upperneck 13.7047 2.82585 -0.879513
head 8.03382 0.859702 1.17068
rclavicle 5.48646e-014 -1.90833e-014
rhumerus -23.9529 -3.36619 -73.3585
rradius 121.689
rwrist -4.33042
rhand -21.0297 22.2282
rfingers 7.12502
rthumb 5.34571 -7.68436
lclavicle 5.48646e-014 -1.90833e-014
lhumerus -9.64074 3.44651 87.3369
lradius 121.241
lwrist -4.73732
lhand -13.8321 4.36632
lfingers 7.12502
lthumb 12.291 33.9851
rfemur -46.6033 -1.69572 0.0420598
rtibia 69.2359
rfoot -10.1546 11.2423
rtoes -6.39908
lfemur -9.55561 5.47333 -9.48012
ltibia 56.1287
lfoot -18.197 -20.3466
ltoes -32.5425
1540
root -2.63547 15.869 -0.954565 2.90384 -13.8326 7.37235
lowerback 16.0796 -1.4343 -0.829512
upperback 3.0669 -1.77803 4.27581
thorax -5.57152 -0.842127 5.39912
lowerneck -23.7449 0.425653 -6.78554
upperneck 13.9094 2.97178 -0.86697
head 8.10558 0.925557 1.1896
rclavicle -5.56597e-014 -1.59028e-015
rhumerus -23.7322 -1.73435 -73.6669
rradius 123.092
rwrist -3.87751
rhand -20.525 21.8251
rfingers 7.12502
rthumb 5.83298 -8.07465
lclavicle -5.56597e-014 -1.59028e-015
lhumerus -9.66666 3.20536 87.1603
lradius 120.843
lwrist -4.80318
lhand -13.7962 4.08743
lfingers 7.12502
lthumb 12.3256 33.7041
rfemur -45.9702 -1.56286 0.405646
rtibia 69.2595
rfoot -11.5286 10.5878
rtoes -6.75029
lfemur -8.49648 5.08658 -9.43716
ltibia 55.0207
lfoot -18.4046 -20.2871
ltoes -32.6076
